<svg width="390" height="200" viewBox="0 0 390 200" fill="none" xmlns="http://www.w3.org/2000/svg">
<path d="M103.275 59.192C102.731 59.192 102.245 59.0907 101.819 58.888C101.392 58.6747 101.056 58.3867 100.811 58.024C100.565 57.6613 100.443 57.2453 100.443 56.776C100.443 56.328 100.539 55.9227 100.731 55.56C100.923 55.1867 101.221 54.872 101.627 54.616C102.032 54.36 102.549 54.1787 103.179 54.072L106.539 53.512V54.6L103.467 55.112C102.848 55.2187 102.4 55.416 102.123 55.704C101.856 55.992 101.723 56.3333 101.723 56.728C101.723 57.112 101.872 57.4373 102.171 57.704C102.48 57.9707 102.875 58.104 103.355 58.104C103.941 58.104 104.453 57.9813 104.891 57.736C105.328 57.48 105.669 57.1387 105.915 56.712C106.16 56.2853 106.283 55.8107 106.283 55.288V53.112C106.283 52.6 106.096 52.184 105.723 51.864C105.349 51.544 104.864 51.384 104.266 51.384C103.744 51.384 103.285 51.5173 102.891 51.784C102.496 52.04 102.203 52.376 102.011 52.792L100.923 52.2C101.083 51.8373 101.333 51.5067 101.674 51.208C102.027 50.9093 102.427 50.6747 102.875 50.504C103.323 50.3227 103.787 50.232 104.266 50.232C104.896 50.232 105.451 50.3547 105.931 50.6C106.421 50.8453 106.8 51.1867 107.067 51.624C107.344 52.0507 107.483 52.5467 107.483 53.112V59H106.283V57.288L106.459 57.464C106.309 57.784 106.075 58.0773 105.755 58.344C105.445 58.6 105.077 58.808 104.651 58.968C104.235 59.1173 103.776 59.192 103.275 59.192ZM109.951 59V46.888H111.151V59H109.951ZM117.511 59.192C116.711 59.192 115.986 59 115.335 58.616C114.695 58.2213 114.188 57.6827 113.815 57C113.442 56.3173 113.255 55.544 113.255 54.68C113.255 53.816 113.436 53.0533 113.799 52.392C114.162 51.72 114.652 51.192 115.271 50.808C115.9 50.424 116.604 50.232 117.383 50.232C118.002 50.232 118.551 50.3493 119.031 50.584C119.522 50.808 119.938 51.1173 120.279 51.512C120.62 51.896 120.882 52.3333 121.063 52.824C121.244 53.304 121.335 53.8 121.335 54.312C121.335 54.4187 121.33 54.5413 121.319 54.68C121.308 54.808 121.292 54.9413 121.271 55.08H114.023V53.96H120.583L120.007 54.44C120.103 53.8533 120.034 53.3307 119.799 52.872C119.575 52.4027 119.25 52.0347 118.823 51.768C118.396 51.4907 117.916 51.352 117.383 51.352C116.85 51.352 116.354 51.4907 115.895 51.768C115.447 52.0453 115.095 52.4347 114.839 52.936C114.583 53.4267 114.482 54.0133 114.535 54.696C114.482 55.3787 114.588 55.976 114.855 56.488C115.132 56.9893 115.506 57.3787 115.975 57.656C116.455 57.9333 116.967 58.072 117.511 58.072C118.14 58.072 118.668 57.9227 119.095 57.624C119.522 57.3253 119.868 56.952 120.135 56.504L121.159 57.048C120.988 57.432 120.727 57.7893 120.375 58.12C120.023 58.44 119.602 58.7013 119.111 58.904C118.631 59.096 118.098 59.192 117.511 59.192ZM122.239 59L125.247 54.712L122.255 50.424H123.727L126.383 54.28H125.567L128.207 50.424H129.679L126.687 54.712L129.679 59H128.207L125.567 55.144H126.383L123.727 59H122.239ZM131.507 59V57.24H132.787V59H131.507ZM140.006 59.192C139.27 59.192 138.603 59.0267 138.006 58.696C137.419 58.3547 136.976 57.8747 136.678 57.256L136.87 57.08V59H135.67V46.888H136.87V52.344L136.678 52.008C137.019 51.464 137.472 51.032 138.038 50.712C138.614 50.392 139.27 50.232 140.006 50.232C140.816 50.232 141.536 50.4293 142.166 50.824C142.806 51.208 143.307 51.736 143.67 52.408C144.043 53.08 144.23 53.848 144.23 54.712C144.23 55.5653 144.043 56.3333 143.67 57.016C143.307 57.688 142.806 58.2213 142.166 58.616C141.536 59 140.816 59.192 140.006 59.192ZM139.942 57.992C140.518 57.992 141.03 57.848 141.478 57.56C141.936 57.272 142.294 56.8827 142.55 56.392C142.816 55.8907 142.95 55.3307 142.95 54.712C142.95 54.0827 142.816 53.5227 142.55 53.032C142.294 52.5413 141.936 52.152 141.478 51.864C141.03 51.576 140.518 51.432 139.942 51.432C139.366 51.432 138.843 51.576 138.374 51.864C137.915 52.152 137.547 52.5467 137.27 53.048C137.003 53.5387 136.87 54.0933 136.87 54.712C136.87 55.3307 137.003 55.8907 137.27 56.392C137.547 56.8827 137.915 57.272 138.374 57.56C138.843 57.848 139.366 57.992 139.942 57.992ZM150.245 59.192C149.445 59.192 148.72 59 148.069 58.616C147.429 58.2213 146.923 57.6827 146.549 57C146.176 56.3173 145.989 55.544 145.989 54.68C145.989 53.816 146.171 53.0533 146.533 52.392C146.896 51.72 147.387 51.192 148.005 50.808C148.635 50.424 149.339 50.232 150.117 50.232C150.736 50.232 151.285 50.3493 151.765 50.584C152.256 50.808 152.672 51.1173 153.013 51.512C153.355 51.896 153.616 52.3333 153.797 52.824C153.979 53.304 154.069 53.8 154.069 54.312C154.069 54.4187 154.064 54.5413 154.053 54.68C154.043 54.808 154.027 54.9413 154.005 55.08H146.757V53.96H153.317L152.741 54.44C152.837 53.8533 152.768 53.3307 152.533 52.872C152.309 52.4027 151.984 52.0347 151.557 51.768C151.131 51.4907 150.651 51.352 150.117 51.352C149.584 51.352 149.088 51.4907 148.629 51.768C148.181 52.0453 147.829 52.4347 147.573 52.936C147.317 53.4267 147.216 54.0133 147.269 54.696C147.216 55.3787 147.323 55.976 147.589 56.488C147.867 56.9893 148.24 57.3787 148.709 57.656C149.189 57.9333 149.701 58.072 150.245 58.072C150.875 58.072 151.403 57.9227 151.829 57.624C152.256 57.3253 152.603 56.952 152.869 56.504L153.893 57.048C153.723 57.432 153.461 57.7893 153.109 58.12C152.757 58.44 152.336 58.7013 151.845 58.904C151.365 59.096 150.832 59.192 150.245 59.192ZM156.185 59V50.424H157.385V52.088L157.113 52.024C157.326 51.4693 157.673 51.032 158.153 50.712C158.644 50.392 159.209 50.232 159.849 50.232C160.457 50.232 161.001 50.3707 161.481 50.648C161.972 50.9253 162.356 51.3093 162.633 51.8C162.921 52.28 163.065 52.824 163.065 53.432V59H161.865V53.896C161.865 53.3733 161.769 52.9307 161.577 52.568C161.396 52.2053 161.134 51.928 160.793 51.736C160.462 51.5333 160.078 51.432 159.641 51.432C159.204 51.432 158.814 51.5333 158.473 51.736C158.132 51.928 157.865 52.2107 157.673 52.584C157.481 52.9467 157.385 53.384 157.385 53.896V59H156.185ZM165.357 59V50.424H166.557V52.088L166.285 52.024C166.498 51.4693 166.845 51.032 167.325 50.712C167.816 50.392 168.381 50.232 169.021 50.232C169.629 50.232 170.173 50.3707 170.653 50.648C171.144 50.9253 171.528 51.3093 171.805 51.8C172.093 52.28 172.237 52.824 172.237 53.432V59H171.037V53.896C171.037 53.3733 170.941 52.9307 170.749 52.568C170.568 52.2053 170.306 51.928 169.965 51.736C169.634 51.5333 169.25 51.432 168.813 51.432C168.376 51.432 167.986 51.5333 167.645 51.736C167.304 51.928 167.037 52.2107 166.845 52.584C166.653 52.9467 166.557 53.384 166.557 53.896V59H165.357ZM178.433 59.192C177.633 59.192 176.908 59 176.257 58.616C175.617 58.2213 175.11 57.6827 174.737 57C174.364 56.3173 174.177 55.544 174.177 54.68C174.177 53.816 174.358 53.0533 174.721 52.392C175.084 51.72 175.574 51.192 176.193 50.808C176.822 50.424 177.526 50.232 178.305 50.232C178.924 50.232 179.473 50.3493 179.953 50.584C180.444 50.808 180.86 51.1173 181.201 51.512C181.542 51.896 181.804 52.3333 181.985 52.824C182.166 53.304 182.257 53.8 182.257 54.312C182.257 54.4187 182.252 54.5413 182.241 54.68C182.23 54.808 182.214 54.9413 182.193 55.08H174.945V53.96H181.505L180.929 54.44C181.025 53.8533 180.956 53.3307 180.721 52.872C180.497 52.4027 180.172 52.0347 179.745 51.768C179.318 51.4907 178.838 51.352 178.305 51.352C177.772 51.352 177.276 51.4907 176.817 51.768C176.369 52.0453 176.017 52.4347 175.761 52.936C175.505 53.4267 175.404 54.0133 175.457 54.696C175.404 55.3787 175.51 55.976 175.777 56.488C176.054 56.9893 176.428 57.3787 176.897 57.656C177.377 57.9333 177.889 58.072 178.433 58.072C179.062 58.072 179.59 57.9227 180.017 57.624C180.444 57.3253 180.79 56.952 181.057 56.504L182.081 57.048C181.91 57.432 181.649 57.7893 181.297 58.12C180.945 58.44 180.524 58.7013 180.033 58.904C179.553 59.096 179.02 59.192 178.433 59.192ZM187.653 59.096C186.885 59.096 186.293 58.872 185.877 58.424C185.461 57.976 185.253 57.336 185.253 56.504V51.624H183.669V50.424H184.069C184.431 50.424 184.719 50.3067 184.933 50.072C185.146 49.8267 185.253 49.5227 185.253 49.16V48.44H186.453V50.424H188.341V51.624H186.453V56.504C186.453 56.792 186.495 57.048 186.581 57.272C186.666 57.4853 186.81 57.656 187.013 57.784C187.226 57.912 187.509 57.976 187.861 57.976C187.946 57.976 188.047 57.9707 188.165 57.96C188.282 57.9493 188.383 57.9387 188.469 57.928V59C188.341 59.032 188.197 59.0533 188.037 59.064C187.877 59.0853 187.749 59.096 187.653 59.096ZM193.856 59.096C193.088 59.096 192.496 58.872 192.08 58.424C191.664 57.976 191.456 57.336 191.456 56.504V51.624H189.872V50.424H190.272C190.634 50.424 190.922 50.3067 191.136 50.072C191.349 49.8267 191.456 49.5227 191.456 49.16V48.44H192.656V50.424H194.544V51.624H192.656V56.504C192.656 56.792 192.698 57.048 192.784 57.272C192.869 57.4853 193.013 57.656 193.216 57.784C193.429 57.912 193.712 57.976 194.064 57.976C194.149 57.976 194.25 57.9707 194.368 57.96C194.485 57.9493 194.586 57.9387 194.672 57.928V59C194.544 59.032 194.4 59.0533 194.24 59.064C194.08 59.0853 193.952 59.096 193.856 59.096ZM203.259 62.312C202.32 62.312 201.446 62.1413 200.635 61.8C199.835 61.4693 199.131 61 198.523 60.392C197.915 59.784 197.44 59.08 197.099 58.28C196.768 57.4693 196.603 56.6 196.603 55.672C196.603 54.744 196.774 53.88 197.115 53.08C197.456 52.28 197.926 51.5813 198.523 50.984C199.131 50.3867 199.84 49.9227 200.651 49.592C201.462 49.2507 202.331 49.08 203.259 49.08C204.219 49.08 205.104 49.2613 205.915 49.624C206.726 49.976 207.424 50.4613 208.011 51.08C208.608 51.688 209.067 52.3813 209.387 53.16C209.718 53.9387 209.883 54.7547 209.883 55.608C209.883 56.28 209.776 56.872 209.563 57.384C209.36 57.8853 209.062 58.28 208.667 58.568C208.272 58.856 207.798 59 207.243 59C206.912 59 206.598 58.9413 206.299 58.824C206 58.696 205.744 58.52 205.531 58.296C205.328 58.0613 205.19 57.784 205.115 57.464L205.371 57.672C205.2 57.96 204.987 58.2053 204.731 58.408C204.486 58.6 204.208 58.7493 203.899 58.856C203.59 58.952 203.254 59 202.891 59C202.272 59 201.712 58.8507 201.211 58.552C200.72 58.2533 200.331 57.848 200.043 57.336C199.755 56.824 199.611 56.2427 199.611 55.592C199.611 54.9413 199.755 54.36 200.043 53.848C200.331 53.336 200.72 52.9307 201.211 52.632C201.712 52.3227 202.272 52.168 202.891 52.168C203.414 52.168 203.888 52.2747 204.315 52.488C204.752 52.7013 205.099 53 205.355 53.384L205.243 53.576V52.328H206.283V56.744C206.283 57.1387 206.368 57.4267 206.539 57.608C206.72 57.7893 206.96 57.88 207.259 57.88C207.707 57.88 208.054 57.6933 208.299 57.32C208.555 56.9467 208.683 56.3867 208.683 55.64C208.683 54.872 208.55 54.1573 208.283 53.496C208.016 52.8347 207.643 52.2587 207.163 51.768C206.683 51.2773 206.112 50.8933 205.451 50.616C204.79 50.3387 204.059 50.2 203.259 50.2C202.48 50.2 201.755 50.3387 201.083 50.616C200.422 50.8827 199.846 51.2613 199.355 51.752C198.864 52.2427 198.48 52.8187 198.203 53.48C197.936 54.1413 197.803 54.8667 197.803 55.656C197.803 56.424 197.931 57.144 198.187 57.816C198.454 58.4773 198.827 59.0587 199.307 59.56C199.798 60.072 200.379 60.472 201.051 60.76C201.723 61.048 202.47 61.192 203.291 61.192C203.771 61.192 204.235 61.1387 204.683 61.032C205.131 60.936 205.536 60.7867 205.899 60.584L206.411 61.544C205.504 62.056 204.454 62.312 203.259 62.312ZM202.939 57.88C203.355 57.88 203.723 57.7787 204.043 57.576C204.363 57.3733 204.614 57.1013 204.795 56.76C204.987 56.408 205.083 56.0133 205.083 55.576C205.083 54.9147 204.88 54.376 204.475 53.96C204.07 53.5333 203.558 53.32 202.939 53.32C202.534 53.32 202.166 53.4213 201.835 53.624C201.515 53.816 201.264 54.0827 201.083 54.424C200.902 54.7653 200.811 55.1547 200.811 55.592C200.811 56.0187 200.902 56.408 201.083 56.76C201.275 57.1013 201.531 57.3733 201.851 57.576C202.171 57.7787 202.534 57.88 202.939 57.88ZM215.542 59.192C214.742 59.192 214.017 59 213.366 58.616C212.726 58.2213 212.22 57.6827 211.846 57C211.473 56.3173 211.286 55.544 211.286 54.68C211.286 53.816 211.468 53.0533 211.83 52.392C212.193 51.72 212.684 51.192 213.302 50.808C213.932 50.424 214.636 50.232 215.414 50.232C216.033 50.232 216.582 50.3493 217.062 50.584C217.553 50.808 217.969 51.1173 218.31 51.512C218.652 51.896 218.913 52.3333 219.094 52.824C219.276 53.304 219.366 53.8 219.366 54.312C219.366 54.4187 219.361 54.5413 219.35 54.68C219.34 54.808 219.324 54.9413 219.302 55.08H212.054V53.96H218.614L218.038 54.44C218.134 53.8533 218.065 53.3307 217.83 52.872C217.606 52.4027 217.281 52.0347 216.854 51.768C216.428 51.4907 215.948 51.352 215.414 51.352C214.881 51.352 214.385 51.4907 213.926 51.768C213.478 52.0453 213.126 52.4347 212.87 52.936C212.614 53.4267 212.513 54.0133 212.566 54.696C212.513 55.3787 212.62 55.976 212.886 56.488C213.164 56.9893 213.537 57.3787 214.006 57.656C214.486 57.9333 214.998 58.072 215.542 58.072C216.172 58.072 216.7 57.9227 217.126 57.624C217.553 57.3253 217.9 56.952 218.166 56.504L219.19 57.048C219.02 57.432 218.758 57.7893 218.406 58.12C218.054 58.44 217.633 58.7013 217.142 58.904C216.662 59.096 216.129 59.192 215.542 59.192ZM221.482 59V50.424H222.682V52.056L222.49 51.816C222.725 51.3147 223.071 50.9253 223.53 50.648C223.999 50.3707 224.511 50.232 225.066 50.232C225.727 50.232 226.325 50.4187 226.858 50.792C227.391 51.1653 227.77 51.6507 227.994 52.248L227.658 52.264C227.871 51.6027 228.239 51.1013 228.762 50.76C229.295 50.408 229.882 50.232 230.522 50.232C231.098 50.232 231.626 50.3707 232.106 50.648C232.597 50.9253 232.986 51.3093 233.274 51.8C233.573 52.28 233.722 52.824 233.722 53.432V59H232.522V53.896C232.522 53.3733 232.426 52.9307 232.234 52.568C232.053 52.2053 231.802 51.928 231.482 51.736C231.162 51.5333 230.794 51.432 230.378 51.432C229.973 51.432 229.605 51.5333 229.274 51.736C228.943 51.928 228.682 52.2107 228.49 52.584C228.298 52.9467 228.202 53.384 228.202 53.896V59H227.002V53.896C227.002 53.3733 226.906 52.9307 226.714 52.568C226.533 52.2053 226.282 51.928 225.962 51.736C225.642 51.5333 225.274 51.432 224.858 51.432C224.442 51.432 224.069 51.5333 223.738 51.736C223.418 51.928 223.162 52.2107 222.97 52.584C222.778 52.9467 222.682 53.384 222.682 53.896V59H221.482ZM238.493 59.192C237.949 59.192 237.464 59.0907 237.037 58.888C236.611 58.6747 236.275 58.3867 236.029 58.024C235.784 57.6613 235.661 57.2453 235.661 56.776C235.661 56.328 235.757 55.9227 235.949 55.56C236.141 55.1867 236.44 54.872 236.845 54.616C237.251 54.36 237.768 54.1787 238.397 54.072L241.757 53.512V54.6L238.685 55.112C238.067 55.2187 237.619 55.416 237.341 55.704C237.075 55.992 236.941 56.3333 236.941 56.728C236.941 57.112 237.091 57.4373 237.389 57.704C237.699 57.9707 238.093 58.104 238.573 58.104C239.16 58.104 239.672 57.9813 240.109 57.736C240.547 57.48 240.888 57.1387 241.133 56.712C241.379 56.2853 241.501 55.8107 241.501 55.288V53.112C241.501 52.6 241.315 52.184 240.941 51.864C240.568 51.544 240.083 51.384 239.485 51.384C238.963 51.384 238.504 51.5173 238.109 51.784C237.715 52.04 237.421 52.376 237.229 52.792L236.141 52.2C236.301 51.8373 236.552 51.5067 236.893 51.208C237.245 50.9093 237.645 50.6747 238.093 50.504C238.541 50.3227 239.005 50.232 239.485 50.232C240.115 50.232 240.669 50.3547 241.149 50.6C241.64 50.8453 242.019 51.1867 242.285 51.624C242.563 52.0507 242.701 52.5467 242.701 53.112V59H241.501V57.288L241.677 57.464C241.528 57.784 241.293 58.0773 240.973 58.344C240.664 58.6 240.296 58.808 239.869 58.968C239.453 59.1173 238.995 59.192 238.493 59.192ZM245.17 59V50.424H246.37V59H245.17ZM245.17 48.84V47.08H246.37V48.84H245.17ZM248.826 59V46.888H250.026V59H248.826ZM252.898 59V57.24H254.178V59H252.898ZM260.98 59.192C260.137 59.192 259.396 58.9947 258.756 58.6C258.116 58.2053 257.615 57.672 257.252 57C256.889 56.3173 256.708 55.5493 256.708 54.696C256.708 53.8427 256.889 53.08 257.252 52.408C257.615 51.736 258.116 51.208 258.756 50.824C259.396 50.4293 260.137 50.232 260.98 50.232C261.513 50.232 262.015 50.328 262.484 50.52C262.953 50.712 263.369 50.9733 263.732 51.304C264.095 51.624 264.367 51.9973 264.548 52.424L263.46 52.984C263.247 52.5253 262.921 52.152 262.484 51.864C262.047 51.576 261.545 51.432 260.98 51.432C260.415 51.432 259.903 51.576 259.444 51.864C258.996 52.1413 258.639 52.5307 258.372 53.032C258.116 53.5227 257.988 54.0827 257.988 54.712C257.988 55.3307 258.116 55.8907 258.372 56.392C258.639 56.8827 258.996 57.272 259.444 57.56C259.903 57.848 260.415 57.992 260.98 57.992C261.545 57.992 262.041 57.848 262.468 57.56C262.905 57.272 263.236 56.888 263.46 56.408L264.548 57C264.367 57.416 264.095 57.7893 263.732 58.12C263.369 58.4507 262.953 58.712 262.484 58.904C262.015 59.096 261.513 59.192 260.98 59.192ZM270.67 59.192C269.859 59.192 269.123 59 268.462 58.616C267.801 58.2213 267.273 57.688 266.878 57.016C266.494 56.3333 266.302 55.56 266.302 54.696C266.302 53.8427 266.494 53.08 266.878 52.408C267.262 51.736 267.779 51.208 268.43 50.824C269.091 50.4293 269.838 50.232 270.67 50.232C271.502 50.232 272.243 50.424 272.894 50.808C273.555 51.192 274.073 51.72 274.446 52.392C274.83 53.064 275.022 53.832 275.022 54.696C275.022 55.5707 274.825 56.3493 274.43 57.032C274.035 57.704 273.507 58.232 272.846 58.616C272.195 59 271.47 59.192 270.67 59.192ZM270.67 57.992C271.246 57.992 271.763 57.848 272.222 57.56C272.691 57.272 273.059 56.8773 273.326 56.376C273.603 55.8747 273.742 55.3147 273.742 54.696C273.742 54.0773 273.603 53.5227 273.326 53.032C273.059 52.5413 272.691 52.152 272.222 51.864C271.763 51.576 271.246 51.432 270.67 51.432C270.094 51.432 269.571 51.576 269.102 51.864C268.643 52.152 268.275 52.5413 267.998 53.032C267.721 53.5227 267.582 54.0773 267.582 54.696C267.582 55.3147 267.721 55.8747 267.998 56.376C268.275 56.8773 268.643 57.272 269.102 57.56C269.571 57.848 270.094 57.992 270.67 57.992ZM277.138 59V50.424H278.338V52.056L278.146 51.816C278.381 51.3147 278.728 50.9253 279.186 50.648C279.656 50.3707 280.168 50.232 280.722 50.232C281.384 50.232 281.981 50.4187 282.514 50.792C283.048 51.1653 283.426 51.6507 283.65 52.248L283.314 52.264C283.528 51.6027 283.896 51.1013 284.418 50.76C284.952 50.408 285.538 50.232 286.178 50.232C286.754 50.232 287.282 50.3707 287.762 50.648C288.253 50.9253 288.642 51.3093 288.93 51.8C289.229 52.28 289.378 52.824 289.378 53.432V59H288.178V53.896C288.178 53.3733 288.082 52.9307 287.89 52.568C287.709 52.2053 287.458 51.928 287.138 51.736C286.818 51.5333 286.45 51.432 286.034 51.432C285.629 51.432 285.261 51.5333 284.93 51.736C284.6 51.928 284.338 52.2107 284.146 52.584C283.954 52.9467 283.858 53.384 283.858 53.896V59H282.658V53.896C282.658 53.3733 282.562 52.9307 282.37 52.568C282.189 52.2053 281.938 51.928 281.618 51.736C281.298 51.5333 280.93 51.432 280.514 51.432C280.098 51.432 279.725 51.5333 279.394 51.736C279.074 51.928 278.818 52.2107 278.626 52.584C278.434 52.9467 278.338 53.384 278.338 53.896V59H277.138Z" fill="#757575"/>
<g clip-path="url(#clip0_1_4)">
<path fill-rule="evenodd" clip-rule="evenodd" d="M183.25 90.25H166.75C165.922 90.25 165.25 90.9216 165.25 91.75V108.25C165.25 109.078 165.922 109.75 166.75 109.75H183.25C184.078 109.75 184.75 109.078 184.75 108.25V91.75C184.75 90.9216 184.078 90.25 183.25 90.25V90.25ZM183.25 108.25H166.75V91.75H183.25V108.25V108.25ZM172 98.5V104.5C172 104.914 171.664 105.25 171.25 105.25C170.836 105.25 170.5 104.914 170.5 104.5V98.5C170.5 98.0858 170.836 97.75 171.25 97.75C171.664 97.75 172 98.0858 172 98.5V98.5ZM180.25 101.125V104.5C180.25 104.914 179.914 105.25 179.5 105.25C179.086 105.25 178.75 104.914 178.75 104.5V101.125C178.75 100.089 177.911 99.25 176.875 99.25C175.839 99.25 175 100.089 175 101.125V104.5C175 104.914 174.664 105.25 174.25 105.25C173.836 105.25 173.5 104.914 173.5 104.5V98.5C173.502 98.1198 173.788 97.8011 174.166 97.7585C174.544 97.7159 174.894 97.9628 174.98 98.3331C176.014 97.6317 177.351 97.5589 178.455 98.1438C179.559 98.7287 180.25 99.8756 180.25 101.125V101.125ZM172.375 95.875C172.375 96.4963 171.871 97 171.25 97C170.629 97 170.125 96.4963 170.125 95.875C170.125 95.2537 170.629 94.75 171.25 94.75C171.871 94.75 172.375 95.2537 172.375 95.875V95.875Z" fill="#757575"/>
</g>
<g clip-path="url(#clip1_1_4)">
<path fill-rule="evenodd" clip-rule="evenodd" d="M226.193 94.4631C226.077 94.1828 225.803 94.0001 225.5 94H222.647C221.836 92.6197 220.36 91.7658 218.759 91.75C217.575 91.7345 216.434 92.1975 215.595 93.0344C214.732 93.8814 214.247 95.0407 214.25 96.25V96.8209C210.476 95.8253 207.388 92.755 207.356 92.7222C207.15 92.5149 206.843 92.4457 206.569 92.5446C206.294 92.6436 206.102 92.8928 206.076 93.1834C205.672 97.6637 206.973 100.662 208.138 102.388C208.707 103.241 209.398 104.006 210.19 104.657C208.762 106.3 206.514 107.163 206.489 107.173C206.275 107.253 206.109 107.427 206.039 107.645C205.968 107.863 206.001 108.101 206.128 108.291C206.199 108.396 206.48 108.765 207.167 109.109C208.017 109.534 209.139 109.75 210.5 109.75C217.125 109.75 222.661 104.648 223.227 98.0837L226.031 95.2806C226.245 95.066 226.309 94.7433 226.193 94.4631V94.4631ZM221.974 97.2203C221.845 97.3492 221.768 97.5205 221.757 97.7022C221.375 103.617 216.432 108.25 210.5 108.25C209.51 108.25 208.812 108.119 208.323 107.961C209.402 107.375 210.907 106.368 211.874 104.916C211.989 104.744 212.027 104.531 211.98 104.33C211.933 104.128 211.804 103.955 211.625 103.851C211.581 103.826 207.508 101.382 207.5 94.8513C209 96.07 211.742 97.9609 214.875 98.4878C215.093 98.5245 215.315 98.4636 215.484 98.3215C215.652 98.1794 215.749 97.9704 215.75 97.75V96.25C215.748 95.4418 216.073 94.667 216.65 94.1013C217.203 93.5469 217.957 93.2398 218.741 93.25C219.928 93.265 221.037 93.9888 221.501 95.0509C221.62 95.3238 221.89 95.5001 222.188 95.5H223.688L221.974 97.2203Z" fill="#757575"/>
</g>
<path d="M126.241 155V154.2L129.569 150.536C130.219 149.821 130.747 149.229 131.153 148.76C131.569 148.291 131.878 147.864 132.081 147.48C132.283 147.096 132.385 146.68 132.385 146.232C132.385 145.517 132.177 144.968 131.761 144.584C131.345 144.2 130.79 144.008 130.097 144.008C129.382 144.008 128.779 144.211 128.289 144.616C127.809 145.021 127.483 145.587 127.312 146.312L126.145 146.056C126.283 145.405 126.534 144.845 126.897 144.376C127.259 143.907 127.713 143.544 128.257 143.288C128.801 143.021 129.409 142.888 130.081 142.888C130.795 142.888 131.419 143.032 131.953 143.32C132.486 143.608 132.902 144.003 133.201 144.504C133.51 145.005 133.665 145.581 133.665 146.232C133.665 146.68 133.569 147.112 133.377 147.528C133.195 147.944 132.918 148.392 132.545 148.872C132.171 149.352 131.691 149.912 131.105 150.552L128.081 153.88H133.985V155H126.241ZM140.778 155.192C139.84 155.192 139.013 154.936 138.298 154.424C137.594 153.901 137.045 153.181 136.65 152.264C136.256 151.336 136.058 150.259 136.058 149.032C136.058 147.805 136.256 146.733 136.65 145.816C137.045 144.888 137.594 144.168 138.298 143.656C139.002 143.144 139.824 142.888 140.762 142.888C141.701 142.888 142.522 143.144 143.226 143.656C143.93 144.168 144.48 144.888 144.874 145.816C145.269 146.733 145.466 147.805 145.466 149.032C145.466 150.259 145.269 151.336 144.874 152.264C144.49 153.192 143.946 153.912 143.242 154.424C142.538 154.936 141.717 155.192 140.778 155.192ZM140.778 153.992C141.461 153.992 142.058 153.784 142.57 153.368C143.082 152.952 143.482 152.376 143.77 151.64C144.058 150.893 144.202 150.024 144.202 149.032C144.202 148.04 144.058 147.176 143.77 146.44C143.482 145.693 143.082 145.117 142.57 144.712C142.058 144.296 141.456 144.088 140.762 144.088C140.08 144.088 139.482 144.296 138.97 144.712C138.458 145.117 138.058 145.693 137.77 146.44C137.482 147.176 137.338 148.04 137.338 149.032C137.338 150.013 137.482 150.877 137.77 151.624C138.058 152.371 138.458 152.952 138.97 153.368C139.493 153.784 140.096 153.992 140.778 153.992ZM147.553 155V154.2L150.881 150.536C151.532 149.821 152.06 149.229 152.465 148.76C152.881 148.291 153.19 147.864 153.393 147.48C153.596 147.096 153.697 146.68 153.697 146.232C153.697 145.517 153.489 144.968 153.073 144.584C152.657 144.2 152.102 144.008 151.409 144.008C150.694 144.008 150.092 144.211 149.601 144.616C149.121 145.021 148.796 145.587 148.625 146.312L147.457 146.056C147.596 145.405 147.846 144.845 148.209 144.376C148.572 143.907 149.025 143.544 149.569 143.288C150.113 143.021 150.721 142.888 151.393 142.888C152.108 142.888 152.732 143.032 153.265 143.32C153.798 143.608 154.214 144.003 154.513 144.504C154.822 145.005 154.977 145.581 154.977 146.232C154.977 146.68 154.881 147.112 154.689 147.528C154.508 147.944 154.23 148.392 153.857 148.872C153.484 149.352 153.004 149.912 152.417 150.552L149.393 153.88H155.297V155H147.553ZM162.863 155V152.184H156.799V151.144L162.863 143.08H163.983V151.144H165.439V152.184H163.983V155H162.863ZM157.775 151.608L157.631 151.144H162.863V144.184L163.263 144.296L157.775 151.608ZM169.035 155L173.387 143.08H174.763L179.115 155H177.771L176.747 152.088H171.419L170.379 155H169.035ZM171.835 150.888H176.299L173.883 144.04H174.267L171.835 150.888ZM180.529 155V142.888H181.729V155H180.529ZM188.089 155.192C187.289 155.192 186.564 155 185.913 154.616C185.273 154.221 184.766 153.683 184.393 153C184.02 152.317 183.833 151.544 183.833 150.68C183.833 149.816 184.014 149.053 184.377 148.392C184.74 147.72 185.23 147.192 185.849 146.808C186.478 146.424 187.182 146.232 187.961 146.232C188.58 146.232 189.129 146.349 189.609 146.584C190.1 146.808 190.516 147.117 190.857 147.512C191.198 147.896 191.46 148.333 191.641 148.824C191.822 149.304 191.913 149.8 191.913 150.312C191.913 150.419 191.908 150.541 191.897 150.68C191.886 150.808 191.87 150.941 191.849 151.08H184.601V149.96H191.161L190.585 150.44C190.681 149.853 190.612 149.331 190.377 148.872C190.153 148.403 189.828 148.035 189.401 147.768C188.974 147.491 188.494 147.352 187.961 147.352C187.428 147.352 186.932 147.491 186.473 147.768C186.025 148.045 185.673 148.435 185.417 148.936C185.161 149.427 185.06 150.013 185.113 150.696C185.06 151.379 185.166 151.976 185.433 152.488C185.71 152.989 186.084 153.379 186.553 153.656C187.033 153.933 187.545 154.072 188.089 154.072C188.718 154.072 189.246 153.923 189.673 153.624C190.1 153.325 190.446 152.952 190.713 152.504L191.737 153.048C191.566 153.432 191.305 153.789 190.953 154.12C190.601 154.44 190.18 154.701 189.689 154.904C189.209 155.096 188.676 155.192 188.089 155.192ZM192.817 155L195.825 150.712L192.833 146.424H194.305L196.961 150.28H196.145L198.785 146.424H200.257L197.265 150.712L200.257 155H198.785L196.145 151.144H196.961L194.305 155H192.817ZM204.564 155V143.08H209.572C210.244 143.08 210.826 143.208 211.316 143.464C211.818 143.709 212.202 144.056 212.468 144.504C212.746 144.952 212.884 145.475 212.884 146.072C212.884 146.691 212.73 147.24 212.42 147.72C212.122 148.189 211.69 148.547 211.124 148.792L211.108 148.408C211.578 148.579 211.978 148.819 212.308 149.128C212.65 149.437 212.911 149.8 213.092 150.216C213.274 150.621 213.364 151.059 213.364 151.528C213.364 152.595 213.023 153.443 212.34 154.072C211.668 154.691 210.751 155 209.588 155H204.564ZM205.844 153.8H209.588C210.346 153.8 210.948 153.603 211.396 153.208C211.855 152.803 212.084 152.248 212.084 151.544C212.084 150.851 211.855 150.301 211.396 149.896C210.948 149.48 210.346 149.272 209.588 149.272H205.844V153.8ZM205.844 148.12H209.476C210.116 148.12 210.628 147.933 211.012 147.56C211.407 147.187 211.604 146.707 211.604 146.12C211.604 145.523 211.407 145.069 211.012 144.76C210.628 144.44 210.116 144.28 209.476 144.28H205.844V148.12ZM219.386 155.192C218.586 155.192 217.861 155 217.21 154.616C216.57 154.221 216.063 153.683 215.69 153C215.317 152.317 215.13 151.544 215.13 150.68C215.13 149.816 215.311 149.053 215.674 148.392C216.037 147.72 216.527 147.192 217.146 146.808C217.775 146.424 218.479 146.232 219.258 146.232C219.877 146.232 220.426 146.349 220.906 146.584C221.397 146.808 221.813 147.117 222.154 147.512C222.495 147.896 222.757 148.333 222.938 148.824C223.119 149.304 223.21 149.8 223.21 150.312C223.21 150.419 223.205 150.541 223.194 150.68C223.183 150.808 223.167 150.941 223.146 151.08H215.898V149.96H222.458L221.882 150.44C221.978 149.853 221.909 149.331 221.674 148.872C221.45 148.403 221.125 148.035 220.698 147.768C220.271 147.491 219.791 147.352 219.258 147.352C218.725 147.352 218.229 147.491 217.77 147.768C217.322 148.045 216.97 148.435 216.714 148.936C216.458 149.427 216.357 150.013 216.41 150.696C216.357 151.379 216.463 151.976 216.73 152.488C217.007 152.989 217.381 153.379 217.85 153.656C218.33 153.933 218.842 154.072 219.386 154.072C220.015 154.072 220.543 153.923 220.97 153.624C221.397 153.325 221.743 152.952 222.01 152.504L223.034 153.048C222.863 153.432 222.602 153.789 222.25 154.12C221.898 154.44 221.477 154.701 220.986 154.904C220.506 155.096 219.973 155.192 219.386 155.192ZM225.326 155V146.424H226.526V148.088L226.254 148.024C226.467 147.469 226.814 147.032 227.294 146.712C227.784 146.392 228.35 146.232 228.99 146.232C229.598 146.232 230.142 146.371 230.622 146.648C231.112 146.925 231.496 147.309 231.774 147.8C232.062 148.28 232.206 148.824 232.206 149.432V155H231.006V149.896C231.006 149.373 230.91 148.931 230.718 148.568C230.536 148.205 230.275 147.928 229.934 147.736C229.603 147.533 229.219 147.432 228.782 147.432C228.344 147.432 227.955 147.533 227.614 147.736C227.272 147.928 227.006 148.211 226.814 148.584C226.622 148.947 226.526 149.384 226.526 149.896V155H225.326ZM234.498 155V146.424H235.698V148.088L235.426 148.024C235.639 147.469 235.986 147.032 236.466 146.712C236.956 146.392 237.522 146.232 238.162 146.232C238.77 146.232 239.314 146.371 239.794 146.648C240.284 146.925 240.668 147.309 240.946 147.8C241.234 148.28 241.378 148.824 241.378 149.432V155H240.178V149.896C240.178 149.373 240.082 148.931 239.89 148.568C239.708 148.205 239.447 147.928 239.106 147.736C238.775 147.533 238.391 147.432 237.954 147.432C237.516 147.432 237.127 147.533 236.786 147.736C236.444 147.928 236.178 148.211 235.986 148.584C235.794 148.947 235.698 149.384 235.698 149.896V155H234.498ZM247.574 155.192C246.774 155.192 246.048 155 245.398 154.616C244.758 154.221 244.251 153.683 243.878 153C243.504 152.317 243.318 151.544 243.318 150.68C243.318 149.816 243.499 149.053 243.862 148.392C244.224 147.72 244.715 147.192 245.334 146.808C245.963 146.424 246.667 146.232 247.446 146.232C248.064 146.232 248.614 146.349 249.094 146.584C249.584 146.808 250 147.117 250.342 147.512C250.683 147.896 250.944 148.333 251.126 148.824C251.307 149.304 251.398 149.8 251.398 150.312C251.398 150.419 251.392 150.541 251.382 150.68C251.371 150.808 251.355 150.941 251.334 151.08H244.086V149.96H250.646L250.07 150.44C250.166 149.853 250.096 149.331 249.862 148.872C249.638 148.403 249.312 148.035 248.886 147.768C248.459 147.491 247.979 147.352 247.446 147.352C246.912 147.352 246.416 147.491 245.958 147.768C245.51 148.045 245.158 148.435 244.902 148.936C244.646 149.427 244.544 150.013 244.598 150.696C244.544 151.379 244.651 151.976 244.918 152.488C245.195 152.989 245.568 153.379 246.038 153.656C246.518 153.933 247.03 154.072 247.574 154.072C248.203 154.072 248.731 153.923 249.158 153.624C249.584 153.325 249.931 152.952 250.198 152.504L251.222 153.048C251.051 153.432 250.79 153.789 250.438 154.12C250.086 154.44 249.664 154.701 249.174 154.904C248.694 155.096 248.16 155.192 247.574 155.192ZM256.793 155.096C256.025 155.096 255.433 154.872 255.017 154.424C254.601 153.976 254.393 153.336 254.393 152.504V147.624H252.809V146.424H253.209C253.572 146.424 253.86 146.307 254.073 146.072C254.287 145.827 254.393 145.523 254.393 145.16V144.44H255.593V146.424H257.481V147.624H255.593V152.504C255.593 152.792 255.636 153.048 255.721 153.272C255.807 153.485 255.951 153.656 256.153 153.784C256.367 153.912 256.649 153.976 257.001 153.976C257.087 153.976 257.188 153.971 257.305 153.96C257.423 153.949 257.524 153.939 257.609 153.928V155C257.481 155.032 257.337 155.053 257.177 155.064C257.017 155.085 256.889 155.096 256.793 155.096ZM262.996 155.096C262.228 155.096 261.636 154.872 261.22 154.424C260.804 153.976 260.596 153.336 260.596 152.504V147.624H259.012V146.424H259.412C259.775 146.424 260.063 146.307 260.276 146.072C260.49 145.827 260.596 145.523 260.596 145.16V144.44H261.796V146.424H263.684V147.624H261.796V152.504C261.796 152.792 261.839 153.048 261.924 153.272C262.01 153.485 262.154 153.656 262.356 153.784C262.57 153.912 262.852 153.976 263.204 153.976C263.29 153.976 263.391 153.971 263.508 153.96C263.626 153.949 263.727 153.939 263.812 153.928V155C263.684 155.032 263.54 155.053 263.38 155.064C263.22 155.085 263.092 155.096 262.996 155.096Z" fill="#757575"/>
<defs>
<clipPath id="clip0_1_4">
<rect width="24" height="24" fill="white" transform="translate(163 88)"/>
</clipPath>
<clipPath id="clip1_1_4">
<rect width="24" height="24" fill="white" transform="translate(203 88)"/>
</clipPath>
</defs>
</svg>
